<svg width="873" height="339" xmlns="http://www.w3.org/2000/svg" xmlns:xlink="http://www.w3.org/1999/xlink" xml:space="preserve" overflow="hidden"><defs><filter id="fx0" x="-10%" y="-10%" width="120%" height="120%" filterUnits="userSpaceOnUse" primitiveUnits="userSpaceOnUse"><feComponentTransfer color-interpolation-filters="sRGB"><feFuncR type="discrete" tableValues="0 0"/><feFuncG type="discrete" tableValues="0 0"/><feFuncB type="discrete" tableValues="0 0"/><feFuncA type="linear" slope="0.4" intercept="0"/></feComponentTransfer><feGaussianBlur stdDeviation="6.11111 6.11111"/></filter><clipPath id="clip1"><rect x="1504" y="291" width="873" height="339"/></clipPath><clipPath id="clip2"><rect x="-3" y="-3" width="881" height="341"/></clipPath><clipPath id="clip3"><rect x="0" y="0" width="875" height="336"/></clipPath><clipPath id="clip4"><rect x="1545" y="313" width="331" height="291"/></clipPath><clipPath id="clip5"><rect x="1545" y="313" width="331" height="291"/></clipPath><clipPath id="clip6"><rect x="1545" y="313" width="331" height="291"/></clipPath></defs><g clip-path="url(#clip1)" transform="translate(-1504 -291)"><g clip-path="url(#clip2)" filter="url(#fx0)" transform="translate(1503 295)"><g clip-path="url(#clip3)"><path d="M20.0001 69.0841C20.0001 41.8377 42.0876 19.7501 69.334 19.7501L805.666 19.7501C832.913 19.7501 855 41.8377 855 69.0841L855 266.416C855 293.663 832.913 315.75 805.666 315.75L69.334 315.75C42.0876 315.75 20.0001 293.663 20.0001 266.416Z" fill="#E6AF00" fill-rule="evenodd"/></g></g><path d="M1523 350.334C1523 323.088 1545.09 301 1572.33 301L2308.67 301C2335.91 301 2358 323.088 2358 350.334L2358 547.666C2358 574.913 2335.91 597 2308.67 597L1572.33 597C1545.09 597 1523 574.913 1523 547.666Z" fill="#E6AF00" fill-rule="evenodd"/><text fill="#FFFFFF" font-family="Calibri,Calibri_MSFontService,sans-serif" font-weight="700" font-size="128" transform="matrix(1 0 0 1 1927.52 450)">3.000</text><text fill="#FFFFFF" font-family="Calibri,Calibri_MSFontService,sans-serif" font-weight="400" font-size="55" transform="matrix(1 0 0 1 1870.78 544)">Empleados </text><text fill="#FFFFFF" font-family="Calibri,Calibri_MSFontService,sans-serif" font-weight="700" font-size="55" transform="matrix(1 0 0 1 2129.16 544)">Activos</text><g clip-path="url(#clip4)"><g clip-path="url(#clip5)"><g clip-path="url(#clip6)"><path d="M217.068 158.601 229.329 188.183 172.645 188.183C172.421 203.173 160.087 215.143 145.097 214.919 130.423 214.7 118.581 202.857 118.361 188.183L61.6253 188.183 86.8301 127.312 129.765 127.312C126.645 121.601 124.346 115.478 122.935 109.125L74.6748 109.125 42.4375 186.964 42.4375 254.625 248.562 254.625 248.562 187.098 233.003 149.55C228.113 153.256 222.755 156.299 217.068 158.601Z" fill="#FFFFFF" transform="matrix(1.13402 0 0 1 1545 313)"/><path d="M190.969 36.375C159.161 36.375 133.375 62.1606 133.375 93.9687 133.375 125.777 159.161 151.562 190.969 151.562 222.777 151.562 248.562 125.777 248.562 93.9687 248.576 62.1739 222.812 36.3883 191.017 36.375 191.001 36.375 190.985 36.375 190.969 36.375ZM204.912 96.718C196.522 105.094 188.08 113.545 179.586 122.071 172.368 114.821 165.134 107.586 157.886 100.368L165.136 93.1169 179.586 107.57C186.601 100.453 193.572 93.3867 200.502 86.3724 207.431 79.355 211.272 75.5902 218.456 68.6426 218.659 68.4395 218.874 68.2394 219.111 68.0364 219.338 67.8427 219.541 67.6229 219.717 67.3816L227.071 74.6324C218.553 83.1259 213.315 88.3427 204.912 96.718Z" fill="#FFFFFF" transform="matrix(1.13402 0 0 1 1545 313)"/></g></g></g></g></svg>