<svg width="935" height="983" xmlns="http://www.w3.org/2000/svg" xmlns:xlink="http://www.w3.org/1999/xlink" xml:space="preserve" overflow="hidden"><g transform="translate(-1602 -1234)"><text fill="#595959" font-family="Calibri,Calibri_MSFontService,sans-serif" font-weight="400" font-size="110" transform="matrix(1 0 0 1 1790.96 2122)">100%</text><text fill="#595959" font-family="Calibri,Calibri_MSFontService,sans-serif" font-weight="400" font-size="110" transform="matrix(1 0 0 1 2127.71 2122)">100%</text><g><g><g><path d="M363.417 71.3854C363.417 100.058 340.173 123.302 311.5 123.302 282.827 123.302 259.583 100.058 259.583 71.3854 259.583 42.7126 282.827 19.4687 311.5 19.4687 340.173 19.4687 363.417 42.7126 363.417 71.3854Z" fill="#595959" transform="matrix(1 0 0 1.00161 1914 1409)"/><path d="M452.973 338.756 416.631 184.304C415.333 179.112 412.737 173.921 408.844 170.027 393.269 157.048 375.098 147.962 354.331 141.473 340.054 138.877 325.777 136.281 311.5 136.281 297.223 136.281 282.946 138.877 268.669 142.771 247.902 147.962 229.731 158.346 214.156 171.325 210.262 175.219 207.667 180.41 206.369 185.602L170.027 340.054C170.027 341.352 168.729 343.948 168.729 346.544 168.729 360.821 180.41 372.502 194.687 372.502 206.369 372.502 216.752 363.417 219.348 353.033L246.604 240.115 246.604 603.531 298.521 603.531 298.521 369.906 324.479 369.906 324.479 603.531 376.396 603.531 376.396 238.817 403.652 351.735C406.248 362.119 416.631 371.204 428.312 371.204 442.589 371.204 454.271 359.523 454.271 345.246 454.271 342.65 452.973 340.054 452.973 338.756Z" fill="#595959" transform="matrix(1 0 0 1.00161 1914 1409)"/></g></g></g><g><g><g><path d="M364.066 71.3854C364.066 100.058 340.822 123.302 312.149 123.302 283.476 123.302 260.232 100.058 260.232 71.3854 260.232 42.7127 283.476 19.4688 312.149 19.4688 340.822 19.4688 364.066 42.7127 364.066 71.3854Z" fill="#595959" transform="matrix(1 0 0 1.0016 1602 1409)"/><path d="M453.622 336.161 406.897 175.219C405.599 168.729 401.705 163.538 396.514 160.942 380.939 150.558 362.768 144.069 342.001 138.877 331.618 137.579 322.532 136.281 312.149 136.281 301.766 136.281 292.68 137.579 282.297 138.877 261.53 142.771 243.359 150.558 227.784 160.942 222.593 164.835 218.699 168.729 217.401 175.219L169.378 336.161C165.484 350.438 173.272 364.715 187.549 368.608 190.145 369.906 192.741 369.906 195.337 369.906 207.018 369.906 217.401 362.119 219.997 351.736L260.232 215.454 260.232 260.881 212.209 421.823 247.253 421.823 247.253 603.531 299.17 603.531 299.17 421.823 325.128 421.823 325.128 603.531 377.045 603.531 377.045 421.823 412.089 421.823 364.066 260.881 364.066 215.454 404.301 351.736C408.195 363.417 418.578 369.906 428.962 369.906 431.557 369.906 434.153 369.906 436.749 368.608 449.728 364.715 457.516 350.438 453.622 336.161Z" fill="#595959" transform="matrix(1 0 0 1.0016 1602 1409)"/></g></g></g><text fill="#7F7F7F" font-family="Calibri,Calibri_MSFontService,sans-serif" font-weight="400" font-size="64" transform="matrix(1 0 0 1 1751.02 1314)">Cantidad Empleados por </text><text fill="#7F7F7F" font-family="Calibri,Calibri_MSFontService,sans-serif" font-weight="400" font-size="64" transform="matrix(1 0 0 1 1973.81 1391)">Género</text></g></svg>