<svg width="874" height="339" xmlns="http://www.w3.org/2000/svg" xmlns:xlink="http://www.w3.org/1999/xlink" xml:space="preserve" overflow="hidden"><defs><filter id="fx0" x="-10%" y="-10%" width="120%" height="120%" filterUnits="userSpaceOnUse" primitiveUnits="userSpaceOnUse"><feComponentTransfer color-interpolation-filters="sRGB"><feFuncR type="discrete" tableValues="0 0"/><feFuncG type="discrete" tableValues="0 0"/><feFuncB type="discrete" tableValues="0 0"/><feFuncA type="linear" slope="0.4" intercept="0"/></feComponentTransfer><feGaussianBlur stdDeviation="6.11111 6.11111"/></filter><clipPath id="clip1"><rect x="2745" y="283" width="874" height="339"/></clipPath><clipPath id="clip2"><rect x="-3" y="-3" width="881" height="341"/></clipPath><clipPath id="clip3"><rect x="0" y="0" width="876" height="335"/></clipPath><clipPath id="clip4"><rect x="2775" y="289" width="331" height="331"/></clipPath><clipPath id="clip5"><rect x="2775" y="289" width="331" height="331"/></clipPath><clipPath id="clip6"><rect x="2775" y="289" width="331" height="331"/></clipPath></defs><g clip-path="url(#clip1)" transform="translate(-2745 -283)"><g clip-path="url(#clip2)" filter="url(#fx0)" transform="translate(2744 288)"><g clip-path="url(#clip3)"><path d="M20 68.9179C20 41.7632 42.0133 19.7499 69.168 19.7499L806.832 19.7499C833.987 19.7499 856 41.7632 856 68.9179L856 265.582C856 292.737 833.987 314.75 806.832 314.75L69.168 314.75C42.0133 314.75 20 292.737 20 265.582Z" fill="#A88000" fill-rule="evenodd"/></g></g><path d="M2764 343.168C2764 316.013 2786.01 294 2813.17 294L3550.83 294C3577.99 294 3600 316.013 3600 343.168L3600 539.832C3600 566.987 3577.99 589 3550.83 589L2813.17 589C2786.01 589 2764 566.987 2764 539.832Z" fill="#A88000" fill-rule="evenodd"/><text fill="#FFFFFF" font-family="Calibri,Calibri_MSFontService,sans-serif" font-weight="700" font-size="128" transform="matrix(1 0 0 1 3168.77 442)">3.000</text><text fill="#FFFFFF" font-family="Calibri,Calibri_MSFontService,sans-serif" font-weight="400" font-size="55" transform="matrix(1 0 0 1 3092.49 537)">Empleados </text><text fill="#FFFFFF" font-family="Calibri,Calibri_MSFontService,sans-serif" font-weight="700" font-size="55" transform="matrix(1 0 0 1 3350.88 537)">Inactivos</text><g clip-path="url(#clip4)"><g clip-path="url(#clip5)"><g clip-path="url(#clip6)"><path d="M3045.19 347.455 2834.81 347.455C2828.39 347.522 2823.19 352.716 2823.12 359.142L2823.12 501.152C2823.07 507.554 2828.22 512.786 2834.62 512.84 2834.68 512.84 2834.75 512.84 2834.81 512.84L2963.38 512.84 3010.12 560.621 3010.12 513.184 3045.19 513.184C3051.61 513.117 3056.81 507.923 3056.88 501.496L3056.88 359.489C3056.96 352.944 3051.73 347.564 3045.19 347.455ZM2914.96 446.252C2914.95 448.937 2912.78 451.111 2910.09 451.116L2891.88 451.116 2891.88 400.066 2910.09 400.066C2912.78 400.075 2914.95 402.248 2914.95 404.93ZM2981.8 447.469 2958.71 447.469C2956.76 447.504 2955.16 449.043 2955.06 450.992 2957.74 458.431 2958.97 466.309 2958.71 474.209 2958.71 478.236 2955.44 481.5 2951.42 481.5 2947.39 481.5 2944.12 478.236 2944.12 474.209 2944.12 455.733 2922.62 445.279 2922.25 445.039L2922.25 406.143C2930.88 406.143 2931.49 396.422 2947.77 396.422L2969.65 396.422C2973.67 396.433 2976.92 399.691 2976.94 403.713 2976.96 405.528 2976.26 407.279 2974.99 408.574L2975.72 408.574C2979.74 408.587 2983 411.845 2983.01 415.868 2983.03 417.776 2982.29 419.614 2980.95 420.973 2984.86 421.823 2987.35 425.685 2986.5 429.6 2986.18 431.049 2985.43 432.366 2984.34 433.375 2987.22 434.398 2989.12 437.133 2989.08 440.181 2989.07 444.2 2985.81 447.454 2981.8 447.469Z" fill="#FFFFFF"/></g></g></g></g></svg>