<svg width="873" height="339" xmlns="http://www.w3.org/2000/svg" xmlns:xlink="http://www.w3.org/1999/xlink" xml:space="preserve" overflow="hidden"><defs><filter id="fx0" x="-10%" y="-10%" width="120%" height="120%" filterUnits="userSpaceOnUse" primitiveUnits="userSpaceOnUse"><feComponentTransfer color-interpolation-filters="sRGB"><feFuncR type="discrete" tableValues="0 0"/><feFuncG type="discrete" tableValues="0 0"/><feFuncB type="discrete" tableValues="0 0"/><feFuncA type="linear" slope="0.4" intercept="0"/></feComponentTransfer><feGaussianBlur stdDeviation="6.11111 6.11111"/></filter><clipPath id="clip1"><rect x="1573" y="175" width="873" height="339"/></clipPath><clipPath id="clip2"><rect x="-3" y="-3" width="881" height="341"/></clipPath><clipPath id="clip3"><rect x="0" y="0" width="875" height="335"/></clipPath><clipPath id="clip4"><rect x="1608" y="185" width="316" height="324"/></clipPath><clipPath id="clip5"><rect x="1608" y="185" width="316" height="324"/></clipPath><clipPath id="clip6"><rect x="1608" y="185" width="316" height="324"/></clipPath></defs><g clip-path="url(#clip1)" transform="translate(-1573 -175)"><g clip-path="url(#clip2)" filter="url(#fx0)" transform="translate(1572 180)"><g clip-path="url(#clip3)"><path d="M19.9999 68.9177C19.9999 41.7631 42.013 19.75 69.1675 19.75L805.832 19.75C832.987 19.75 855 41.7631 855 68.9177L855 265.582C855 292.737 832.987 314.75 805.832 314.75L69.1675 314.75C42.013 314.75 19.9999 292.737 19.9999 265.582Z" fill="#F3C812" fill-rule="evenodd"/></g></g><path d="M1592 235.168C1592 208.013 1614.01 186 1641.17 186L2377.83 186C2404.99 186 2427 208.013 2427 235.168L2427 431.832C2427 458.987 2404.99 481 2377.83 481L1641.17 481C1614.01 481 1592 458.987 1592 431.832Z" fill="#F3C812" fill-rule="evenodd"/><text fill="#FFFFFF" font-family="Calibri,Calibri_MSFontService,sans-serif" font-weight="700" font-size="128" transform="matrix(1 0 0 1 1996.13 334)">3.000<tspan font-weight="400" font-size="55" x="-56.7401" y="94">Total</tspan><tspan font-weight="400" font-size="55" x="63.7556" y="94">de Empleados</tspan></text><g clip-path="url(#clip4)"><g clip-path="url(#clip5)"><g clip-path="url(#clip6)"><path d="M108.625 101.383C108.625 117.745 95.3614 131.008 79 131.008 62.6385 131.008 49.375 117.745 49.375 101.383 49.375 85.0219 62.6385 71.7583 79 71.7583 95.3614 71.7583 108.625 85.0219 108.625 101.383Z" fill="#FFFFFF" transform="matrix(1 0 0 1.01899 1608 186)"/><path d="M266.625 101.383C266.625 117.745 253.361 131.008 237 131.008 220.638 131.008 207.375 117.745 207.375 101.383 207.375 85.0219 220.638 71.7583 237 71.7583 253.361 71.7583 266.625 85.0219 266.625 101.383Z" fill="#FFFFFF" transform="matrix(1 0 0 1.01899 1608 186)"/><path d="M217.25 244.242 217.25 214.617C217.25 210.008 215.275 205.4 211.325 202.767 203.425 196.183 192.892 191.575 182.358 188.942 175.117 186.967 166.558 184.992 158 184.992 150.1 184.992 141.542 186.308 133.642 188.942 123.108 191.575 113.233 196.842 104.675 202.767 100.725 206.058 98.75 210.008 98.75 214.617L98.75 244.242 217.25 244.242Z" fill="#FFFFFF" transform="matrix(1 0 0 1.01899 1608 186)"/><path d="M187.625 147.467C187.625 163.828 174.361 177.092 158 177.092 141.639 177.092 128.375 163.828 128.375 147.467 128.375 131.105 141.639 117.842 158 117.842 174.361 117.842 187.625 131.105 187.625 147.467Z" fill="#FFFFFF" transform="matrix(1 0 0 1.01899 1608 186)"/><path d="M290.325 156.683C282.425 150.1 271.892 145.492 261.358 142.858 254.117 140.883 245.558 138.908 237 138.908 229.1 138.908 220.542 140.225 212.642 142.858 208.692 144.175 204.742 145.492 200.792 147.467L200.792 148.125C200.792 159.317 196.183 169.85 188.942 177.092 201.45 181.042 211.325 186.308 219.225 192.233 221.2 194.208 223.175 195.525 224.492 198.158L296.25 198.158 296.25 168.533C296.25 163.925 294.275 159.317 290.325 156.683Z" fill="#FFFFFF" transform="matrix(1 0 0 1.01899 1608 186)"/><path d="M96.775 192.233 96.775 192.233C105.992 185.65 116.525 180.383 127.058 177.092 119.817 169.192 115.208 159.317 115.208 148.125 115.208 147.467 115.208 147.467 115.208 146.808 111.258 145.492 107.308 143.517 103.358 142.858 96.1166 140.883 87.5583 138.908 79 138.908 71.1 138.908 62.5416 140.225 54.6417 142.858 44.1083 146.15 34.2333 150.758 25.675 156.683 21.725 159.317 19.75 163.925 19.75 168.533L19.75 198.158 90.85 198.158C92.825 195.525 94.1416 194.208 96.775 192.233Z" fill="#FFFFFF" transform="matrix(1 0 0 1.01899 1608 186)"/></g></g></g></g></svg>